<?xml version="1.0" encoding="UTF-8" standalone="no"?>
<!DOCTYPE svg PUBLIC "-//W3C//DTD SVG 1.1//EN"
 "http://www.w3.org/Graphics/SVG/1.1/DTD/svg11.dtd">
<!-- Generated by graphviz version 2.49.3 (20211023.0002)
 -->
<!-- Pages: 1 -->
<svg width="4928pt" height="620pt"
 viewBox="0.00 0.00 4927.86 620.00" xmlns="http://www.w3.org/2000/svg" xmlns:xlink="http://www.w3.org/1999/xlink">
<g id="graph0" class="graph" transform="scale(1 1) rotate(0) translate(4 616)">
<polygon fill="white" stroke="transparent" points="-4,4 -4,-616 4923.86,-616 4923.86,4 -4,4"/>
<!-- [root] aws_default_vpc.default (expand) -->
<g id="node1" class="node">
<title>[root] aws_default_vpc.default (expand)</title>
<polygon fill="none" stroke="black" points="153,-180 0,-180 0,-144 153,-144 153,-180"/>
<text text-anchor="middle" x="76.5" y="-158.3" font-family="Times New Roman,serif" font-size="14.00">aws_default_vpc.default</text>
</g>
<!-- [root] provider[&quot;registry.terraform.io/hashicorp/aws&quot;] -->
<g id="node17" class="node">
<title>[root] provider[&quot;registry.terraform.io/hashicorp/aws&quot;]</title>
<polygon fill="none" stroke="black" points="4662.5,-108 4405.27,-90 4662.5,-72 4919.73,-90 4662.5,-108"/>
<text text-anchor="middle" x="4662.5" y="-86.3" font-family="Times New Roman,serif" font-size="14.00">provider[&quot;registry.terraform.io/hashicorp/aws&quot;]</text>
</g>
<!-- [root] aws_default_vpc.default (expand)&#45;&gt;[root] provider[&quot;registry.terraform.io/hashicorp/aws&quot;] -->
<g id="edge1" class="edge">
<title>[root] aws_default_vpc.default (expand)&#45;&gt;[root] provider[&quot;registry.terraform.io/hashicorp/aws&quot;]</title>
<path fill="none" stroke="black" d="M153.31,-144.97C156.07,-144.61 158.81,-144.28 161.5,-144 583.42,-99.71 3528.06,-92.42 4412.11,-91.23"/>
<polygon fill="black" stroke="black" points="4412.42,-94.73 4422.42,-91.22 4412.42,-87.73 4412.42,-94.73"/>
</g>
<!-- [root] aws_instance.ec2&#45;kube&#45;master (expand) -->
<g id="node2" class="node">
<title>[root] aws_instance.ec2&#45;kube&#45;master (expand)</title>
<polygon fill="none" stroke="black" points="2419,-324 2232,-324 2232,-288 2419,-288 2419,-324"/>
<text text-anchor="middle" x="2325.5" y="-302.3" font-family="Times New Roman,serif" font-size="14.00">aws_instance.ec2&#45;kube&#45;master</text>
</g>
<!-- [root] aws_security_group.security&#45;group (expand) -->
<g id="node4" class="node">
<title>[root] aws_security_group.security&#45;group (expand)</title>
<polygon fill="none" stroke="black" points="2690,-252 2475,-252 2475,-216 2690,-216 2690,-252"/>
<text text-anchor="middle" x="2582.5" y="-230.3" font-family="Times New Roman,serif" font-size="14.00">aws_security_group.security&#45;group</text>
</g>
<!-- [root] aws_instance.ec2&#45;kube&#45;master (expand)&#45;&gt;[root] aws_security_group.security&#45;group (expand) -->
<g id="edge2" class="edge">
<title>[root] aws_instance.ec2&#45;kube&#45;master (expand)&#45;&gt;[root] aws_security_group.security&#45;group (expand)</title>
<path fill="none" stroke="black" d="M2388.04,-287.97C2424.73,-277.97 2471.26,-265.3 2509.61,-254.85"/>
<polygon fill="black" stroke="black" points="2510.95,-258.12 2519.68,-252.11 2509.11,-251.36 2510.95,-258.12"/>
</g>
<!-- [root] data.aws_ami.ubuntu (expand) -->
<g id="node5" class="node">
<title>[root] data.aws_ami.ubuntu (expand)</title>
<polygon fill="none" stroke="black" points="3842.5,-252 3708.5,-252 3708.5,-216 3842.5,-216 3842.5,-252"/>
<text text-anchor="middle" x="3775.5" y="-230.3" font-family="Times New Roman,serif" font-size="14.00">data.aws_ami.ubuntu</text>
</g>
<!-- [root] aws_instance.ec2&#45;kube&#45;master (expand)&#45;&gt;[root] data.aws_ami.ubuntu (expand) -->
<g id="edge3" class="edge">
<title>[root] aws_instance.ec2&#45;kube&#45;master (expand)&#45;&gt;[root] data.aws_ami.ubuntu (expand)</title>
<path fill="none" stroke="black" d="M2419.03,-293.77C2439.59,-291.59 2461.26,-289.52 2481.5,-288 2942.37,-253.49 3497.39,-240.23 3698.24,-236.34"/>
<polygon fill="black" stroke="black" points="3698.46,-239.84 3708.4,-236.15 3698.33,-232.84 3698.46,-239.84"/>
</g>
<!-- [root] var.ec2&#45;instance&#45;type -->
<g id="node18" class="node">
<title>[root] var.ec2&#45;instance&#45;type</title>
<polygon fill="none" stroke="black" points="1853,-252 1724,-252 1724,-216 1859,-216 1859,-246 1853,-252"/>
<polyline fill="none" stroke="black" points="1853,-252 1853,-246 "/>
<polyline fill="none" stroke="black" points="1859,-246 1853,-246 "/>
<text text-anchor="middle" x="1791.5" y="-230.3" font-family="Times New Roman,serif" font-size="14.00">var.ec2&#45;instance&#45;type</text>
</g>
<!-- [root] aws_instance.ec2&#45;kube&#45;master (expand)&#45;&gt;[root] var.ec2&#45;instance&#45;type -->
<g id="edge6" class="edge">
<title>[root] aws_instance.ec2&#45;kube&#45;master (expand)&#45;&gt;[root] var.ec2&#45;instance&#45;type</title>
<path fill="none" stroke="black" d="M2231.89,-296.96C2141.5,-288.55 2000.63,-273.74 1868.9,-251.97"/>
<polygon fill="black" stroke="black" points="1869.47,-248.51 1859.03,-250.32 1868.32,-255.42 1869.47,-248.51"/>
</g>
<!-- [root] local.ec2&#45;master&#45;name (expand) -->
<g id="node20" class="node">
<title>[root] local.ec2&#45;master&#45;name (expand)</title>
<ellipse fill="none" stroke="black" cx="2026.5" cy="-234" rx="149.47" ry="18"/>
<text text-anchor="middle" x="2026.5" y="-230.3" font-family="Times New Roman,serif" font-size="14.00">[root] local.ec2&#45;master&#45;name (expand)</text>
</g>
<!-- [root] aws_instance.ec2&#45;kube&#45;master (expand)&#45;&gt;[root] local.ec2&#45;master&#45;name (expand) -->
<g id="edge4" class="edge">
<title>[root] aws_instance.ec2&#45;kube&#45;master (expand)&#45;&gt;[root] local.ec2&#45;master&#45;name (expand)</title>
<path fill="none" stroke="black" d="M2252.74,-287.97C2207,-277.26 2148.12,-263.47 2101.89,-252.65"/>
<polygon fill="black" stroke="black" points="2102.46,-249.19 2091.93,-250.32 2100.87,-256.01 2102.46,-249.19"/>
</g>
<!-- [root] local.ec2&#45;ssh&#45;key (expand) -->
<g id="node21" class="node">
<title>[root] local.ec2&#45;ssh&#45;key (expand)</title>
<ellipse fill="none" stroke="black" cx="2325.5" cy="-234" rx="131.88" ry="18"/>
<text text-anchor="middle" x="2325.5" y="-230.3" font-family="Times New Roman,serif" font-size="14.00">[root] local.ec2&#45;ssh&#45;key (expand)</text>
</g>
<!-- [root] aws_instance.ec2&#45;kube&#45;master (expand)&#45;&gt;[root] local.ec2&#45;ssh&#45;key (expand) -->
<g id="edge5" class="edge">
<title>[root] aws_instance.ec2&#45;kube&#45;master (expand)&#45;&gt;[root] local.ec2&#45;ssh&#45;key (expand)</title>
<path fill="none" stroke="black" d="M2325.5,-287.7C2325.5,-279.98 2325.5,-270.71 2325.5,-262.11"/>
<polygon fill="black" stroke="black" points="2329,-262.1 2325.5,-252.1 2322,-262.1 2329,-262.1"/>
</g>
<!-- [root] aws_instance.ec2&#45;kube&#45;node (expand) -->
<g id="node3" class="node">
<title>[root] aws_instance.ec2&#45;kube&#45;node (expand)</title>
<polygon fill="none" stroke="black" points="2723.5,-396 2545.5,-396 2545.5,-360 2723.5,-360 2723.5,-396"/>
<text text-anchor="middle" x="2634.5" y="-374.3" font-family="Times New Roman,serif" font-size="14.00">aws_instance.ec2&#45;kube&#45;node</text>
</g>
<!-- [root] aws_instance.ec2&#45;kube&#45;node (expand)&#45;&gt;[root] aws_instance.ec2&#45;kube&#45;master (expand) -->
<g id="edge7" class="edge">
<title>[root] aws_instance.ec2&#45;kube&#45;node (expand)&#45;&gt;[root] aws_instance.ec2&#45;kube&#45;master (expand)</title>
<path fill="none" stroke="black" d="M2559.31,-359.97C2514.36,-349.78 2457.13,-336.82 2410.54,-326.26"/>
<polygon fill="black" stroke="black" points="2411.29,-322.85 2400.76,-324.05 2409.74,-329.67 2411.29,-322.85"/>
</g>
<!-- [root] local.ec2&#45;node&#45;name (expand) -->
<g id="node22" class="node">
<title>[root] local.ec2&#45;node&#45;name (expand)</title>
<ellipse fill="none" stroke="black" cx="2634.5" cy="-306" rx="143.77" ry="18"/>
<text text-anchor="middle" x="2634.5" y="-302.3" font-family="Times New Roman,serif" font-size="14.00">[root] local.ec2&#45;node&#45;name (expand)</text>
</g>
<!-- [root] aws_instance.ec2&#45;kube&#45;node (expand)&#45;&gt;[root] local.ec2&#45;node&#45;name (expand) -->
<g id="edge8" class="edge">
<title>[root] aws_instance.ec2&#45;kube&#45;node (expand)&#45;&gt;[root] local.ec2&#45;node&#45;name (expand)</title>
<path fill="none" stroke="black" d="M2634.5,-359.7C2634.5,-351.98 2634.5,-342.71 2634.5,-334.11"/>
<polygon fill="black" stroke="black" points="2638,-334.1 2634.5,-324.1 2631,-334.1 2638,-334.1"/>
</g>
<!-- [root] aws_security_group.security&#45;group (expand)&#45;&gt;[root] aws_default_vpc.default (expand) -->
<g id="edge9" class="edge">
<title>[root] aws_security_group.security&#45;group (expand)&#45;&gt;[root] aws_default_vpc.default (expand)</title>
<path fill="none" stroke="black" d="M2474.81,-216.73C2472.01,-216.47 2469.24,-216.22 2466.5,-216 1959.12,-175.03 687.16,-233.7 163.26,-180.05"/>
<polygon fill="black" stroke="black" points="163.62,-176.57 153.31,-179.01 162.9,-183.54 163.62,-176.57"/>
</g>
<!-- [root] local.Kubernetes&#45;API&#45;server (expand) -->
<g id="node23" class="node">
<title>[root] local.Kubernetes&#45;API&#45;server (expand)</title>
<ellipse fill="none" stroke="black" cx="3984.5" cy="-162" rx="171.67" ry="18"/>
<text text-anchor="middle" x="3984.5" y="-158.3" font-family="Times New Roman,serif" font-size="14.00">[root] local.Kubernetes&#45;API&#45;server (expand)</text>
</g>
<!-- [root] aws_security_group.security&#45;group (expand)&#45;&gt;[root] local.Kubernetes&#45;API&#45;server (expand) -->
<g id="edge10" class="edge">
<title>[root] aws_security_group.security&#45;group (expand)&#45;&gt;[root] local.Kubernetes&#45;API&#45;server (expand)</title>
<path fill="none" stroke="black" d="M2690.08,-230.17C2903.03,-224.17 3393.25,-208.32 3804.5,-180 3821.12,-178.86 3838.59,-177.45 3855.84,-175.95"/>
<polygon fill="black" stroke="black" points="3856.31,-179.43 3865.96,-175.06 3855.69,-172.45 3856.31,-179.43"/>
</g>
<!-- [root] local.anyware (expand) -->
<g id="node24" class="node">
<title>[root] local.anyware (expand)</title>
<ellipse fill="none" stroke="black" cx="4292.5" cy="-162" rx="118.08" ry="18"/>
<text text-anchor="middle" x="4292.5" y="-158.3" font-family="Times New Roman,serif" font-size="14.00">[root] local.anyware (expand)</text>
</g>
<!-- [root] aws_security_group.security&#45;group (expand)&#45;&gt;[root] local.anyware (expand) -->
<g id="edge11" class="edge">
<title>[root] aws_security_group.security&#45;group (expand)&#45;&gt;[root] local.anyware (expand)</title>
<path fill="none" stroke="black" d="M2690.2,-233.09C2946.37,-232.49 3611.96,-226.2 4165.5,-180 4177.02,-179.04 4189.09,-177.77 4201.02,-176.35"/>
<polygon fill="black" stroke="black" points="4201.49,-179.82 4210.99,-175.13 4200.64,-172.87 4201.49,-179.82"/>
</g>
<!-- [root] local.cidr (expand) -->
<g id="node25" class="node">
<title>[root] local.cidr (expand)</title>
<ellipse fill="none" stroke="black" cx="4531.5" cy="-162" rx="102.88" ry="18"/>
<text text-anchor="middle" x="4531.5" y="-158.3" font-family="Times New Roman,serif" font-size="14.00">[root] local.cidr (expand)</text>
</g>
<!-- [root] aws_security_group.security&#45;group (expand)&#45;&gt;[root] local.cidr (expand) -->
<g id="edge12" class="edge">
<title>[root] aws_security_group.security&#45;group (expand)&#45;&gt;[root] local.cidr (expand)</title>
<path fill="none" stroke="black" d="M2690.13,-231.62C3030.41,-226.98 4080.48,-210.51 4419.5,-180 4429.59,-179.09 4440.16,-177.86 4450.61,-176.47"/>
<polygon fill="black" stroke="black" points="4451.13,-179.93 4460.56,-175.1 4450.17,-173 4451.13,-179.93"/>
</g>
<!-- [root] local.etcd&#45;server&#45;client&#45;api&#45;to (expand) -->
<g id="node26" class="node">
<title>[root] local.etcd&#45;server&#45;client&#45;api&#45;to (expand)</title>
<ellipse fill="none" stroke="black" cx="345.5" cy="-162" rx="174.67" ry="18"/>
<text text-anchor="middle" x="345.5" y="-158.3" font-family="Times New Roman,serif" font-size="14.00">[root] local.etcd&#45;server&#45;client&#45;api&#45;to (expand)</text>
</g>
<!-- [root] aws_security_group.security&#45;group (expand)&#45;&gt;[root] local.etcd&#45;server&#45;client&#45;api&#45;to (expand) -->
<g id="edge13" class="edge">
<title>[root] aws_security_group.security&#45;group (expand)&#45;&gt;[root] local.etcd&#45;server&#45;client&#45;api&#45;to (expand)</title>
<path fill="none" stroke="black" d="M2474.81,-216.74C2472.01,-216.47 2469.24,-216.23 2466.5,-216 1607.92,-145.4 1388.65,-227.88 528.5,-180 510.89,-179.02 492.36,-177.67 474.12,-176.16"/>
<polygon fill="black" stroke="black" points="474.29,-172.66 464.03,-175.3 473.69,-179.63 474.29,-172.66"/>
</g>
<!-- [root] local.etcd&#45;server&#45;clinet&#45;api&#45;from (expand) -->
<g id="node27" class="node">
<title>[root] local.etcd&#45;server&#45;clinet&#45;api&#45;from (expand)</title>
<ellipse fill="none" stroke="black" cx="722.5" cy="-162" rx="184.67" ry="18"/>
<text text-anchor="middle" x="722.5" y="-158.3" font-family="Times New Roman,serif" font-size="14.00">[root] local.etcd&#45;server&#45;clinet&#45;api&#45;from (expand)</text>
</g>
<!-- [root] aws_security_group.security&#45;group (expand)&#45;&gt;[root] local.etcd&#45;server&#45;clinet&#45;api&#45;from (expand) -->
<g id="edge14" class="edge">
<title>[root] aws_security_group.security&#45;group (expand)&#45;&gt;[root] local.etcd&#45;server&#45;clinet&#45;api&#45;from (expand)</title>
<path fill="none" stroke="black" d="M2474.8,-216.76C2472.01,-216.49 2469.24,-216.23 2466.5,-216 1779.43,-157.9 1603.96,-218.27 915.5,-180 896.84,-178.96 877.19,-177.57 857.85,-176.04"/>
<polygon fill="black" stroke="black" points="858.03,-172.54 847.78,-175.22 857.46,-179.52 858.03,-172.54"/>
</g>
<!-- [root] local.http (expand) -->
<g id="node28" class="node">
<title>[root] local.http (expand)</title>
<ellipse fill="none" stroke="black" cx="1027.5" cy="-162" rx="102.88" ry="18"/>
<text text-anchor="middle" x="1027.5" y="-158.3" font-family="Times New Roman,serif" font-size="14.00">[root] local.http (expand)</text>
</g>
<!-- [root] aws_security_group.security&#45;group (expand)&#45;&gt;[root] local.http (expand) -->
<g id="edge15" class="edge">
<title>[root] aws_security_group.security&#45;group (expand)&#45;&gt;[root] local.http (expand)</title>
<path fill="none" stroke="black" d="M2474.8,-216.77C2472.01,-216.5 2469.24,-216.24 2466.5,-216 1878.7,-165.14 1727.17,-232.37 1139.5,-180 1129.33,-179.09 1118.68,-177.86 1108.16,-176.46"/>
<polygon fill="black" stroke="black" points="1108.52,-172.98 1098.14,-175.08 1107.57,-179.91 1108.52,-172.98"/>
</g>
<!-- [root] local.k8s&#45;dashboard (expand) -->
<g id="node29" class="node">
<title>[root] local.k8s&#45;dashboard (expand)</title>
<ellipse fill="none" stroke="black" cx="1290.5" cy="-162" rx="142.17" ry="18"/>
<text text-anchor="middle" x="1290.5" y="-158.3" font-family="Times New Roman,serif" font-size="14.00">[root] local.k8s&#45;dashboard (expand)</text>
</g>
<!-- [root] aws_security_group.security&#45;group (expand)&#45;&gt;[root] local.k8s&#45;dashboard (expand) -->
<g id="edge16" class="edge">
<title>[root] aws_security_group.security&#45;group (expand)&#45;&gt;[root] local.k8s&#45;dashboard (expand)</title>
<path fill="none" stroke="black" d="M2474.8,-216.8C2472.01,-216.52 2469.24,-216.25 2466.5,-216 2012.96,-174.92 1896.67,-213.33 1442.5,-180 1428.3,-178.96 1413.38,-177.61 1398.66,-176.12"/>
<polygon fill="black" stroke="black" points="1398.82,-172.62 1388.52,-175.07 1398.1,-179.58 1398.82,-172.62"/>
</g>
<!-- [root] local.k8s&#45;node&#45;port&#45;services&#45;from (expand) -->
<g id="node30" class="node">
<title>[root] local.k8s&#45;node&#45;port&#45;services&#45;from (expand)</title>
<ellipse fill="none" stroke="black" cx="1643.5" cy="-162" rx="192.27" ry="18"/>
<text text-anchor="middle" x="1643.5" y="-158.3" font-family="Times New Roman,serif" font-size="14.00">[root] local.k8s&#45;node&#45;port&#45;services&#45;from (expand)</text>
</g>
<!-- [root] aws_security_group.security&#45;group (expand)&#45;&gt;[root] local.k8s&#45;node&#45;port&#45;services&#45;from (expand) -->
<g id="edge17" class="edge">
<title>[root] aws_security_group.security&#45;group (expand)&#45;&gt;[root] local.k8s&#45;node&#45;port&#45;services&#45;from (expand)</title>
<path fill="none" stroke="black" d="M2474.79,-216.89C2472,-216.58 2469.23,-216.28 2466.5,-216 2191.02,-187.9 2120.71,-199.67 1844.5,-180 1826.29,-178.7 1807.16,-177.23 1788.24,-175.7"/>
<polygon fill="black" stroke="black" points="1788.32,-172.2 1778.07,-174.88 1787.75,-179.18 1788.32,-172.2"/>
</g>
<!-- [root] local.k8s&#45;node&#45;port&#45;services&#45;to (expand) -->
<g id="node31" class="node">
<title>[root] local.k8s&#45;node&#45;port&#45;services&#45;to (expand)</title>
<ellipse fill="none" stroke="black" cx="2036.5" cy="-162" rx="182.77" ry="18"/>
<text text-anchor="middle" x="2036.5" y="-158.3" font-family="Times New Roman,serif" font-size="14.00">[root] local.k8s&#45;node&#45;port&#45;services&#45;to (expand)</text>
</g>
<!-- [root] aws_security_group.security&#45;group (expand)&#45;&gt;[root] local.k8s&#45;node&#45;port&#45;services&#45;to (expand) -->
<g id="edge18" class="edge">
<title>[root] aws_security_group.security&#45;group (expand)&#45;&gt;[root] local.k8s&#45;node&#45;port&#45;services&#45;to (expand)</title>
<path fill="none" stroke="black" d="M2474.76,-217.13C2471.98,-216.74 2469.22,-216.37 2466.5,-216 2363.07,-202.05 2245.43,-187.65 2159.38,-177.39"/>
<polygon fill="black" stroke="black" points="2159.65,-173.9 2149.31,-176.19 2158.82,-180.85 2159.65,-173.9"/>
</g>
<!-- [root] local.kube&#45;controller&#45;manager (expand) -->
<g id="node32" class="node">
<title>[root] local.kube&#45;controller&#45;manager (expand)</title>
<ellipse fill="none" stroke="black" cx="2413.5" cy="-162" rx="176.57" ry="18"/>
<text text-anchor="middle" x="2413.5" y="-158.3" font-family="Times New Roman,serif" font-size="14.00">[root] local.kube&#45;controller&#45;manager (expand)</text>
</g>
<!-- [root] aws_security_group.security&#45;group (expand)&#45;&gt;[root] local.kube&#45;controller&#45;manager (expand) -->
<g id="edge19" class="edge">
<title>[root] aws_security_group.security&#45;group (expand)&#45;&gt;[root] local.kube&#45;controller&#45;manager (expand)</title>
<path fill="none" stroke="black" d="M2541.16,-215.88C2517.5,-206.08 2487.68,-193.73 2462.81,-183.42"/>
<polygon fill="black" stroke="black" points="2464.12,-180.18 2453.54,-179.59 2461.44,-186.65 2464.12,-180.18"/>
</g>
<!-- [root] local.kube&#45;scheduler (expand) -->
<g id="node33" class="node">
<title>[root] local.kube&#45;scheduler (expand)</title>
<ellipse fill="none" stroke="black" cx="2751.5" cy="-162" rx="143.77" ry="18"/>
<text text-anchor="middle" x="2751.5" y="-158.3" font-family="Times New Roman,serif" font-size="14.00">[root] local.kube&#45;scheduler (expand)</text>
</g>
<!-- [root] aws_security_group.security&#45;group (expand)&#45;&gt;[root] local.kube&#45;scheduler (expand) -->
<g id="edge20" class="edge">
<title>[root] aws_security_group.security&#45;group (expand)&#45;&gt;[root] local.kube&#45;scheduler (expand)</title>
<path fill="none" stroke="black" d="M2623.84,-215.88C2647.67,-206.01 2677.76,-193.54 2702.74,-183.2"/>
<polygon fill="black" stroke="black" points="2704.14,-186.41 2712.04,-179.35 2701.46,-179.94 2704.14,-186.41"/>
</g>
<!-- [root] local.kubelet&#45;api&#45;and&#45;self (expand) -->
<g id="node34" class="node">
<title>[root] local.kubelet&#45;api&#45;and&#45;self (expand)</title>
<ellipse fill="none" stroke="black" cx="3072.5" cy="-162" rx="159.47" ry="18"/>
<text text-anchor="middle" x="3072.5" y="-158.3" font-family="Times New Roman,serif" font-size="14.00">[root] local.kubelet&#45;api&#45;and&#45;self (expand)</text>
</g>
<!-- [root] aws_security_group.security&#45;group (expand)&#45;&gt;[root] local.kubelet&#45;api&#45;and&#45;self (expand) -->
<g id="edge21" class="edge">
<title>[root] aws_security_group.security&#45;group (expand)&#45;&gt;[root] local.kubelet&#45;api&#45;and&#45;self (expand)</title>
<path fill="none" stroke="black" d="M2690.03,-217.64C2772.65,-205.84 2886.11,-189.63 2967.97,-177.93"/>
<polygon fill="black" stroke="black" points="2968.64,-181.37 2978.04,-176.49 2967.65,-174.44 2968.64,-181.37"/>
</g>
<!-- [root] local.security&#45;group&#45;name (expand) -->
<g id="node35" class="node">
<title>[root] local.security&#45;group&#45;name (expand)</title>
<ellipse fill="none" stroke="black" cx="3412.5" cy="-162" rx="163.27" ry="18"/>
<text text-anchor="middle" x="3412.5" y="-158.3" font-family="Times New Roman,serif" font-size="14.00">[root] local.security&#45;group&#45;name (expand)</text>
</g>
<!-- [root] aws_security_group.security&#45;group (expand)&#45;&gt;[root] local.security&#45;group&#45;name (expand) -->
<g id="edge22" class="edge">
<title>[root] aws_security_group.security&#45;group (expand)&#45;&gt;[root] local.security&#45;group&#45;name (expand)</title>
<path fill="none" stroke="black" d="M2690.26,-224.92C2820.62,-215.01 3046.73,-197.38 3240.5,-180 3255.46,-178.66 3271.14,-177.19 3286.69,-175.7"/>
<polygon fill="black" stroke="black" points="3287.26,-179.16 3296.88,-174.72 3286.59,-172.19 3287.26,-179.16"/>
</g>
<!-- [root] local.ssh (expand) -->
<g id="node36" class="node">
<title>[root] local.ssh (expand)</title>
<ellipse fill="none" stroke="black" cx="3694.5" cy="-162" rx="100.98" ry="18"/>
<text text-anchor="middle" x="3694.5" y="-158.3" font-family="Times New Roman,serif" font-size="14.00">[root] local.ssh (expand)</text>
</g>
<!-- [root] aws_security_group.security&#45;group (expand)&#45;&gt;[root] local.ssh (expand) -->
<g id="edge23" class="edge">
<title>[root] aws_security_group.security&#45;group (expand)&#45;&gt;[root] local.ssh (expand)</title>
<path fill="none" stroke="black" d="M2690.28,-230.85C2874.15,-226.38 3260.04,-213.57 3584.5,-180 3594.16,-179 3604.26,-177.74 3614.27,-176.36"/>
<polygon fill="black" stroke="black" points="3614.81,-179.81 3624.22,-174.94 3613.82,-172.88 3614.81,-179.81"/>
</g>
<!-- [root] data.aws_ami.ubuntu (expand)&#45;&gt;[root] provider[&quot;registry.terraform.io/hashicorp/aws&quot;] -->
<g id="edge24" class="edge">
<title>[root] data.aws_ami.ubuntu (expand)&#45;&gt;[root] provider[&quot;registry.terraform.io/hashicorp/aws&quot;]</title>
<path fill="none" stroke="black" d="M3842.65,-233.49C4035.87,-234.26 4583.32,-231.8 4643.5,-180 4660.86,-165.06 4664.65,-138.51 4664.67,-118.28"/>
<polygon fill="black" stroke="black" points="4668.17,-117.98 4664.38,-108.09 4661.17,-118.19 4668.17,-117.98"/>
</g>
<!-- [root] data.aws_caller_identity.current (expand) -->
<g id="node6" class="node">
<title>[root] data.aws_caller_identity.current (expand)</title>
<polygon fill="none" stroke="black" points="3243,-396 3050,-396 3050,-360 3243,-360 3243,-396"/>
<text text-anchor="middle" x="3146.5" y="-374.3" font-family="Times New Roman,serif" font-size="14.00">data.aws_caller_identity.current</text>
</g>
<!-- [root] data.aws_caller_identity.current (expand)&#45;&gt;[root] provider[&quot;registry.terraform.io/hashicorp/aws&quot;] -->
<g id="edge25" class="edge">
<title>[root] data.aws_caller_identity.current (expand)&#45;&gt;[root] provider[&quot;registry.terraform.io/hashicorp/aws&quot;]</title>
<path fill="none" stroke="black" d="M3243.15,-371.76C3562.97,-353.44 4572.03,-287.5 4666.5,-180 4681.28,-163.18 4678.07,-136.92 4672.48,-117.28"/>
<polygon fill="black" stroke="black" points="4675.8,-116.16 4669.43,-107.7 4669.13,-118.29 4675.8,-116.16"/>
</g>
<!-- [root] output.account_id -->
<g id="node7" class="node">
<title>[root] output.account_id</title>
<polygon fill="none" stroke="black" points="2936,-468 2823,-468 2823,-432 2942,-432 2942,-462 2936,-468"/>
<polyline fill="none" stroke="black" points="2936,-468 2936,-462 "/>
<polyline fill="none" stroke="black" points="2942,-462 2936,-462 "/>
<text text-anchor="middle" x="2882.5" y="-446.3" font-family="Times New Roman,serif" font-size="14.00">output.account_id</text>
</g>
<!-- [root] output.account_id&#45;&gt;[root] data.aws_caller_identity.current (expand) -->
<g id="edge36" class="edge">
<title>[root] output.account_id&#45;&gt;[root] data.aws_caller_identity.current (expand)</title>
<path fill="none" stroke="black" d="M2942.08,-433.2C2980.65,-422.97 3031.18,-409.58 3072.35,-398.66"/>
<polygon fill="black" stroke="black" points="3073.29,-402.03 3082.06,-396.09 3071.5,-395.27 3073.29,-402.03"/>
</g>
<!-- [root] output.caller_arn -->
<g id="node8" class="node">
<title>[root] output.caller_arn</title>
<polygon fill="none" stroke="black" points="3064.5,-468 2960.5,-468 2960.5,-432 3070.5,-432 3070.5,-462 3064.5,-468"/>
<polyline fill="none" stroke="black" points="3064.5,-468 3064.5,-462 "/>
<polyline fill="none" stroke="black" points="3070.5,-462 3064.5,-462 "/>
<text text-anchor="middle" x="3015.5" y="-446.3" font-family="Times New Roman,serif" font-size="14.00">output.caller_arn</text>
</g>
<!-- [root] output.caller_arn&#45;&gt;[root] data.aws_caller_identity.current (expand) -->
<g id="edge37" class="edge">
<title>[root] output.caller_arn&#45;&gt;[root] data.aws_caller_identity.current (expand)</title>
<path fill="none" stroke="black" d="M3047.55,-431.88C3064.99,-422.55 3086.77,-410.92 3105.44,-400.94"/>
<polygon fill="black" stroke="black" points="3107.16,-403.99 3114.33,-396.19 3103.86,-397.82 3107.16,-403.99"/>
</g>
<!-- [root] output.caller_user -->
<g id="node9" class="node">
<title>[root] output.caller_user</title>
<polygon fill="none" stroke="black" points="3198.5,-468 3088.5,-468 3088.5,-432 3204.5,-432 3204.5,-462 3198.5,-468"/>
<polyline fill="none" stroke="black" points="3198.5,-468 3198.5,-462 "/>
<polyline fill="none" stroke="black" points="3204.5,-462 3198.5,-462 "/>
<text text-anchor="middle" x="3146.5" y="-446.3" font-family="Times New Roman,serif" font-size="14.00">output.caller_user</text>
</g>
<!-- [root] output.caller_user&#45;&gt;[root] data.aws_caller_identity.current (expand) -->
<g id="edge38" class="edge">
<title>[root] output.caller_user&#45;&gt;[root] data.aws_caller_identity.current (expand)</title>
<path fill="none" stroke="black" d="M3146.5,-431.7C3146.5,-423.98 3146.5,-414.71 3146.5,-406.11"/>
<polygon fill="black" stroke="black" points="3150,-406.1 3146.5,-396.1 3143,-406.1 3150,-406.1"/>
</g>
<!-- [root] output.server&#45;master&#45;1&#45;id -->
<g id="node10" class="node">
<title>[root] output.server&#45;master&#45;1&#45;id</title>
<polygon fill="none" stroke="black" points="2521.5,-396 2369.5,-396 2369.5,-360 2527.5,-360 2527.5,-390 2521.5,-396"/>
<polyline fill="none" stroke="black" points="2521.5,-396 2521.5,-390 "/>
<polyline fill="none" stroke="black" points="2527.5,-390 2521.5,-390 "/>
<text text-anchor="middle" x="2448.5" y="-374.3" font-family="Times New Roman,serif" font-size="14.00">output.server&#45;master&#45;1&#45;id</text>
</g>
<!-- [root] output.server&#45;master&#45;1&#45;id&#45;&gt;[root] aws_instance.ec2&#45;kube&#45;master (expand) -->
<g id="edge39" class="edge">
<title>[root] output.server&#45;master&#45;1&#45;id&#45;&gt;[root] aws_instance.ec2&#45;kube&#45;master (expand)</title>
<path fill="none" stroke="black" d="M2418.41,-359.88C2402.18,-350.64 2381.96,-339.13 2364.53,-329.21"/>
<polygon fill="black" stroke="black" points="2366.13,-326.09 2355.7,-324.19 2362.66,-332.18 2366.13,-326.09"/>
</g>
<!-- [root] output.server&#45;master&#45;1&#45;ip -->
<g id="node11" class="node">
<title>[root] output.server&#45;master&#45;1&#45;ip</title>
<polygon fill="none" stroke="black" points="2345.5,-396 2193.5,-396 2193.5,-360 2351.5,-360 2351.5,-390 2345.5,-396"/>
<polyline fill="none" stroke="black" points="2345.5,-396 2345.5,-390 "/>
<polyline fill="none" stroke="black" points="2351.5,-390 2345.5,-390 "/>
<text text-anchor="middle" x="2272.5" y="-374.3" font-family="Times New Roman,serif" font-size="14.00">output.server&#45;master&#45;1&#45;ip</text>
</g>
<!-- [root] output.server&#45;master&#45;1&#45;ip&#45;&gt;[root] aws_instance.ec2&#45;kube&#45;master (expand) -->
<g id="edge40" class="edge">
<title>[root] output.server&#45;master&#45;1&#45;ip&#45;&gt;[root] aws_instance.ec2&#45;kube&#45;master (expand)</title>
<path fill="none" stroke="black" d="M2285.6,-359.7C2291.89,-351.39 2299.55,-341.28 2306.46,-332.14"/>
<polygon fill="black" stroke="black" points="2309.3,-334.19 2312.55,-324.1 2303.72,-329.96 2309.3,-334.19"/>
</g>
<!-- [root] output.server&#45;master&#45;1&#45;name -->
<g id="node12" class="node">
<title>[root] output.server&#45;master&#45;1&#45;name</title>
<polygon fill="none" stroke="black" points="2169.5,-396 1999.5,-396 1999.5,-360 2175.5,-360 2175.5,-390 2169.5,-396"/>
<polyline fill="none" stroke="black" points="2169.5,-396 2169.5,-390 "/>
<polyline fill="none" stroke="black" points="2175.5,-390 2169.5,-390 "/>
<text text-anchor="middle" x="2087.5" y="-374.3" font-family="Times New Roman,serif" font-size="14.00">output.server&#45;master&#45;1&#45;name</text>
</g>
<!-- [root] output.server&#45;master&#45;1&#45;name&#45;&gt;[root] aws_instance.ec2&#45;kube&#45;master (expand) -->
<g id="edge41" class="edge">
<title>[root] output.server&#45;master&#45;1&#45;name&#45;&gt;[root] aws_instance.ec2&#45;kube&#45;master (expand)</title>
<path fill="none" stroke="black" d="M2145.42,-359.97C2179.25,-350.01 2222.12,-337.41 2257.54,-326.99"/>
<polygon fill="black" stroke="black" points="2258.72,-330.29 2267.32,-324.11 2256.74,-323.57 2258.72,-330.29"/>
</g>
<!-- [root] output.server&#45;node&#45;id -->
<g id="node13" class="node">
<title>[root] output.server&#45;node&#45;id</title>
<polygon fill="none" stroke="black" points="2644,-468 2513,-468 2513,-432 2650,-432 2650,-462 2644,-468"/>
<polyline fill="none" stroke="black" points="2644,-468 2644,-462 "/>
<polyline fill="none" stroke="black" points="2650,-462 2644,-462 "/>
<text text-anchor="middle" x="2581.5" y="-446.3" font-family="Times New Roman,serif" font-size="14.00">output.server&#45;node&#45;id</text>
</g>
<!-- [root] output.server&#45;node&#45;id&#45;&gt;[root] aws_instance.ec2&#45;kube&#45;node (expand) -->
<g id="edge42" class="edge">
<title>[root] output.server&#45;node&#45;id&#45;&gt;[root] aws_instance.ec2&#45;kube&#45;node (expand)</title>
<path fill="none" stroke="black" d="M2594.6,-431.7C2600.89,-423.39 2608.55,-413.28 2615.46,-404.14"/>
<polygon fill="black" stroke="black" points="2618.3,-406.19 2621.55,-396.1 2612.72,-401.96 2618.3,-406.19"/>
</g>
<!-- [root] output.server&#45;node&#45;ip -->
<g id="node14" class="node">
<title>[root] output.server&#45;node&#45;ip</title>
<polygon fill="none" stroke="black" points="2799,-468 2668,-468 2668,-432 2805,-432 2805,-462 2799,-468"/>
<polyline fill="none" stroke="black" points="2799,-468 2799,-462 "/>
<polyline fill="none" stroke="black" points="2805,-462 2799,-462 "/>
<text text-anchor="middle" x="2736.5" y="-446.3" font-family="Times New Roman,serif" font-size="14.00">output.server&#45;node&#45;ip</text>
</g>
<!-- [root] output.server&#45;node&#45;ip&#45;&gt;[root] aws_instance.ec2&#45;kube&#45;node (expand) -->
<g id="edge43" class="edge">
<title>[root] output.server&#45;node&#45;ip&#45;&gt;[root] aws_instance.ec2&#45;kube&#45;node (expand)</title>
<path fill="none" stroke="black" d="M2711.55,-431.88C2698.46,-422.89 2682.24,-411.76 2668.06,-402.03"/>
<polygon fill="black" stroke="black" points="2669.77,-398.96 2659.55,-396.19 2665.81,-404.73 2669.77,-398.96"/>
</g>
<!-- [root] output.server&#45;node&#45;name -->
<g id="node15" class="node">
<title>[root] output.server&#45;node&#45;name</title>
<polygon fill="none" stroke="black" points="2488.5,-468 2338.5,-468 2338.5,-432 2494.5,-432 2494.5,-462 2488.5,-468"/>
<polyline fill="none" stroke="black" points="2488.5,-468 2488.5,-462 "/>
<polyline fill="none" stroke="black" points="2494.5,-462 2488.5,-462 "/>
<text text-anchor="middle" x="2416.5" y="-446.3" font-family="Times New Roman,serif" font-size="14.00">output.server&#45;node&#45;name</text>
</g>
<!-- [root] output.server&#45;node&#45;name&#45;&gt;[root] aws_instance.ec2&#45;kube&#45;node (expand) -->
<g id="edge44" class="edge">
<title>[root] output.server&#45;node&#45;name&#45;&gt;[root] aws_instance.ec2&#45;kube&#45;node (expand)</title>
<path fill="none" stroke="black" d="M2469.55,-431.97C2500.27,-422.1 2539.14,-409.62 2571.42,-399.25"/>
<polygon fill="black" stroke="black" points="2572.76,-402.5 2581.21,-396.11 2570.62,-395.84 2572.76,-402.5"/>
</g>
<!-- [root] output.vpcid -->
<g id="node16" class="node">
<title>[root] output.vpcid</title>
<polygon fill="none" stroke="black" points="1828.5,-396 1746.5,-396 1746.5,-360 1834.5,-360 1834.5,-390 1828.5,-396"/>
<polyline fill="none" stroke="black" points="1828.5,-396 1828.5,-390 "/>
<polyline fill="none" stroke="black" points="1834.5,-390 1828.5,-390 "/>
<text text-anchor="middle" x="1790.5" y="-374.3" font-family="Times New Roman,serif" font-size="14.00">output.vpcid</text>
</g>
<!-- [root] output.vpcid&#45;&gt;[root] aws_default_vpc.default (expand) -->
<g id="edge45" class="edge">
<title>[root] output.vpcid&#45;&gt;[root] aws_default_vpc.default (expand)</title>
<path fill="none" stroke="black" d="M1746.27,-372.91C1556.88,-355.16 795.6,-281.08 163.59,-180.28"/>
<polygon fill="black" stroke="black" points="163.79,-176.77 153.36,-178.65 162.68,-183.68 163.79,-176.77"/>
</g>
<!-- [root] var.region -->
<g id="node19" class="node">
<title>[root] var.region</title>
<polygon fill="none" stroke="black" points="4692.5,-36 4626.5,-36 4626.5,0 4698.5,0 4698.5,-30 4692.5,-36"/>
<polyline fill="none" stroke="black" points="4692.5,-36 4692.5,-30 "/>
<polyline fill="none" stroke="black" points="4698.5,-30 4692.5,-30 "/>
<text text-anchor="middle" x="4662.5" y="-14.3" font-family="Times New Roman,serif" font-size="14.00">var.region</text>
</g>
<!-- [root] provider[&quot;registry.terraform.io/hashicorp/aws&quot;]&#45;&gt;[root] var.region -->
<g id="edge48" class="edge">
<title>[root] provider[&quot;registry.terraform.io/hashicorp/aws&quot;]&#45;&gt;[root] var.region</title>
<path fill="none" stroke="black" d="M4662.5,-71.7C4662.5,-63.98 4662.5,-54.71 4662.5,-46.11"/>
<polygon fill="black" stroke="black" points="4666,-46.1 4662.5,-36.1 4659,-46.1 4666,-46.1"/>
</g>
<!-- [root] meta.count&#45;boundary (EachMode fixup) -->
<g id="node37" class="node">
<title>[root] meta.count&#45;boundary (EachMode fixup)</title>
<ellipse fill="none" stroke="black" cx="2581.5" cy="-522" rx="180.87" ry="18"/>
<text text-anchor="middle" x="2581.5" y="-518.3" font-family="Times New Roman,serif" font-size="14.00">[root] meta.count&#45;boundary (EachMode fixup)</text>
</g>
<!-- [root] meta.count&#45;boundary (EachMode fixup)&#45;&gt;[root] output.account_id -->
<g id="edge26" class="edge">
<title>[root] meta.count&#45;boundary (EachMode fixup)&#45;&gt;[root] output.account_id</title>
<path fill="none" stroke="black" d="M2651.94,-505.39C2695.77,-495.58 2753.55,-482.47 2812.89,-468.36"/>
<polygon fill="black" stroke="black" points="2813.9,-471.72 2822.81,-466 2812.27,-464.91 2813.9,-471.72"/>
</g>
<!-- [root] meta.count&#45;boundary (EachMode fixup)&#45;&gt;[root] output.caller_arn -->
<g id="edge27" class="edge">
<title>[root] meta.count&#45;boundary (EachMode fixup)&#45;&gt;[root] output.caller_arn</title>
<path fill="none" stroke="black" d="M2696.27,-508.09C2767.06,-499.28 2859.82,-486.25 2950.53,-468.07"/>
<polygon fill="black" stroke="black" points="2951.33,-471.48 2960.44,-466.06 2949.94,-464.62 2951.33,-471.48"/>
</g>
<!-- [root] meta.count&#45;boundary (EachMode fixup)&#45;&gt;[root] output.caller_user -->
<g id="edge28" class="edge">
<title>[root] meta.count&#45;boundary (EachMode fixup)&#45;&gt;[root] output.caller_user</title>
<path fill="none" stroke="black" d="M2725.56,-511.13C2822.78,-503.17 2954.05,-489.92 3078.08,-468.12"/>
<polygon fill="black" stroke="black" points="3078.91,-471.53 3088.14,-466.33 3077.68,-464.63 3078.91,-471.53"/>
</g>
<!-- [root] meta.count&#45;boundary (EachMode fixup)&#45;&gt;[root] output.server&#45;master&#45;1&#45;id -->
<g id="edge29" class="edge">
<title>[root] meta.count&#45;boundary (EachMode fixup)&#45;&gt;[root] output.server&#45;master&#45;1&#45;id</title>
<path fill="none" stroke="black" d="M2454.56,-509.15C2400.5,-501.23 2346.05,-488.39 2329.5,-468 2319.42,-455.58 2320.79,-445.42 2329.5,-432 2338.42,-418.26 2351.83,-408.05 2366.47,-400.47"/>
<polygon fill="black" stroke="black" points="2368.17,-403.53 2375.71,-396.09 2365.17,-397.21 2368.17,-403.53"/>
</g>
<!-- [root] meta.count&#45;boundary (EachMode fixup)&#45;&gt;[root] output.server&#45;master&#45;1&#45;ip -->
<g id="edge30" class="edge">
<title>[root] meta.count&#45;boundary (EachMode fixup)&#45;&gt;[root] output.server&#45;master&#45;1&#45;ip</title>
<path fill="none" stroke="black" d="M2467.01,-508.04C2407.05,-499.31 2341.26,-486.08 2317.5,-468 2297.55,-452.82 2285.77,-426.35 2279.31,-406.21"/>
<polygon fill="black" stroke="black" points="2282.58,-404.95 2276.39,-396.35 2275.87,-406.93 2282.58,-404.95"/>
</g>
<!-- [root] meta.count&#45;boundary (EachMode fixup)&#45;&gt;[root] output.server&#45;master&#45;1&#45;name -->
<g id="edge31" class="edge">
<title>[root] meta.count&#45;boundary (EachMode fixup)&#45;&gt;[root] output.server&#45;master&#45;1&#45;name</title>
<path fill="none" stroke="black" d="M2470.67,-507.74C2414.42,-499.36 2345.48,-486.54 2285.5,-468 2229,-450.53 2167.37,-421.04 2128.13,-400.83"/>
<polygon fill="black" stroke="black" points="2129.62,-397.66 2119.14,-396.15 2126.4,-403.87 2129.62,-397.66"/>
</g>
<!-- [root] meta.count&#45;boundary (EachMode fixup)&#45;&gt;[root] output.server&#45;node&#45;id -->
<g id="edge32" class="edge">
<title>[root] meta.count&#45;boundary (EachMode fixup)&#45;&gt;[root] output.server&#45;node&#45;id</title>
<path fill="none" stroke="black" d="M2581.5,-503.7C2581.5,-495.98 2581.5,-486.71 2581.5,-478.11"/>
<polygon fill="black" stroke="black" points="2585,-478.1 2581.5,-468.1 2578,-478.1 2585,-478.1"/>
</g>
<!-- [root] meta.count&#45;boundary (EachMode fixup)&#45;&gt;[root] output.server&#45;node&#45;ip -->
<g id="edge33" class="edge">
<title>[root] meta.count&#45;boundary (EachMode fixup)&#45;&gt;[root] output.server&#45;node&#45;ip</title>
<path fill="none" stroke="black" d="M2618.63,-504.23C2639.88,-494.63 2666.75,-482.5 2689.47,-472.24"/>
<polygon fill="black" stroke="black" points="2690.93,-475.42 2698.6,-468.12 2688.05,-469.04 2690.93,-475.42"/>
</g>
<!-- [root] meta.count&#45;boundary (EachMode fixup)&#45;&gt;[root] output.server&#45;node&#45;name -->
<g id="edge34" class="edge">
<title>[root] meta.count&#45;boundary (EachMode fixup)&#45;&gt;[root] output.server&#45;node&#45;name</title>
<path fill="none" stroke="black" d="M2542.4,-504.41C2519.6,-494.74 2490.62,-482.44 2466.21,-472.09"/>
<polygon fill="black" stroke="black" points="2467.33,-468.76 2456.76,-468.08 2464.6,-475.21 2467.33,-468.76"/>
</g>
<!-- [root] meta.count&#45;boundary (EachMode fixup)&#45;&gt;[root] output.vpcid -->
<g id="edge35" class="edge">
<title>[root] meta.count&#45;boundary (EachMode fixup)&#45;&gt;[root] output.vpcid</title>
<path fill="none" stroke="black" d="M2467.49,-507.98C2389.75,-498.49 2284.59,-484.44 2192.5,-468 2067.07,-445.61 1921.42,-411.25 1844.51,-392.45"/>
<polygon fill="black" stroke="black" points="1845.12,-388.99 1834.58,-390.01 1843.46,-395.79 1845.12,-388.99"/>
</g>
<!-- [root] provider[&quot;registry.terraform.io/hashicorp/aws&quot;] (close) -->
<g id="node38" class="node">
<title>[root] provider[&quot;registry.terraform.io/hashicorp/aws&quot;] (close)</title>
<ellipse fill="none" stroke="black" cx="3455.5" cy="-450" rx="232.86" ry="18"/>
<text text-anchor="middle" x="3455.5" y="-446.3" font-family="Times New Roman,serif" font-size="14.00">[root] provider[&quot;registry.terraform.io/hashicorp/aws&quot;] (close)</text>
</g>
<!-- [root] provider[&quot;registry.terraform.io/hashicorp/aws&quot;] (close)&#45;&gt;[root] aws_instance.ec2&#45;kube&#45;node (expand) -->
<g id="edge46" class="edge">
<title>[root] provider[&quot;registry.terraform.io/hashicorp/aws&quot;] (close)&#45;&gt;[root] aws_instance.ec2&#45;kube&#45;node (expand)</title>
<path fill="none" stroke="black" d="M3305.39,-436.2C3139.22,-422.03 2876.08,-399.6 2733.77,-387.46"/>
<polygon fill="black" stroke="black" points="2733.99,-383.97 2723.73,-386.61 2733.4,-390.95 2733.99,-383.97"/>
</g>
<!-- [root] provider[&quot;registry.terraform.io/hashicorp/aws&quot;] (close)&#45;&gt;[root] data.aws_caller_identity.current (expand) -->
<g id="edge47" class="edge">
<title>[root] provider[&quot;registry.terraform.io/hashicorp/aws&quot;] (close)&#45;&gt;[root] data.aws_caller_identity.current (expand)</title>
<path fill="none" stroke="black" d="M3384.22,-432.85C3338.79,-422.56 3279.69,-409.17 3231.78,-398.32"/>
<polygon fill="black" stroke="black" points="3232.26,-394.84 3221.73,-396.04 3230.71,-401.67 3232.26,-394.84"/>
</g>
<!-- [root] root -->
<g id="node39" class="node">
<title>[root] root</title>
<ellipse fill="none" stroke="black" cx="2685.5" cy="-594" rx="49.29" ry="18"/>
<text text-anchor="middle" x="2685.5" y="-590.3" font-family="Times New Roman,serif" font-size="14.00">[root] root</text>
</g>
<!-- [root] root&#45;&gt;[root] meta.count&#45;boundary (EachMode fixup) -->
<g id="edge49" class="edge">
<title>[root] root&#45;&gt;[root] meta.count&#45;boundary (EachMode fixup)</title>
<path fill="none" stroke="black" d="M2662.93,-577.81C2648.92,-568.38 2630.66,-556.09 2614.98,-545.53"/>
<polygon fill="black" stroke="black" points="2616.82,-542.56 2606.57,-539.88 2612.92,-548.36 2616.82,-542.56"/>
</g>
<!-- [root] root&#45;&gt;[root] provider[&quot;registry.terraform.io/hashicorp/aws&quot;] (close) -->
<g id="edge50" class="edge">
<title>[root] root&#45;&gt;[root] provider[&quot;registry.terraform.io/hashicorp/aws&quot;] (close)</title>
<path fill="none" stroke="black" d="M2728.55,-585.06C2849.03,-562.84 3191.8,-499.63 3360.02,-468.61"/>
<polygon fill="black" stroke="black" points="3360.66,-472.05 3369.86,-466.79 3359.39,-465.17 3360.66,-472.05"/>
</g>
</g>
</svg>
